<?xml version="1.0" standalone="no"?>
<!DOCTYPE svg PUBLIC "-//W3C//DTD SVG 20010904//EN"
 "http://www.w3.org/TR/2001/REC-SVG-20010904/DTD/svg10.dtd">
<svg version="1.0" xmlns="http://www.w3.org/2000/svg"
 width="300.000000pt" height="386.000000pt" viewBox="0 0 300.000000 386.000000"
 preserveAspectRatio="xMidYMid meet">
<metadata>
Created by potrace 1.10, written by Peter Selinger 2001-2011
</metadata>
<g transform="translate(0.000000,386.000000) scale(0.100000,-0.100000)"
fill="#000000" stroke="none">
<path d="M189 2691 c75 -125 339 -571 586 -989 l450 -761 255 0 255 0 575 941
c316 517 589 962 607 989 l32 49 -434 0 -435 0 -38 -79 -39 -78 111 -7 c61 -3
150 -6 199 -6 48 0 87 -2 87 -4 0 -2 -47 -82 -104 -178 -485 -813 -714 -1209
-774 -1337 l-34 -73 -32 74 c-67 153 -211 416 -619 1123 l-225 390 142 6 c77
4 165 7 194 8 l52 1 -40 80 -40 80 -434 0 -433 0 136 -229z m706 185 c20 -13
53 -72 44 -80 -2 -2 -74 -7 -159 -10 -135 -6 -158 -9 -175 -26 -19 -20 -19
-20 2 -62 11 -24 87 -158 168 -298 81 -140 159 -275 173 -300 14 -25 90 -160
170 -300 80 -140 189 -340 243 -445 53 -104 104 -194 113 -200 27 -17 44 4
108 125 83 157 348 615 547 943 39 65 71 119 71 120 0 2 49 86 110 187 60 102
110 192 110 200 -1 42 -20 48 -185 55 -88 4 -163 10 -167 14 -4 3 3 24 15 46
l23 40 376 0 c207 0 380 -3 384 -7 10 -10 -2 -33 -68 -135 -16 -23 -28 -44
-28 -47 0 -3 -33 -58 -74 -123 -81 -131 -197 -319 -646 -1053 -166 -272 -311
-507 -322 -523 l-20 -27 -223 0 c-240 1 -240 1 -272 57 -10 17 -66 112 -124
210 -176 296 -270 454 -319 538 -106 180 -591 997 -613 1032 -37 59 -39 71
-14 75 12 2 181 5 376 7 297 2 357 0 376 -13z"/>
<path d="M858 2618 c5 -7 152 -265 327 -573 174 -308 321 -564 325 -568 4 -4
48 64 98 153 l91 161 -211 372 c-116 205 -222 393 -237 419 l-26 48 -189 0
c-149 0 -186 -3 -178 -12z m349 -40 c19 -21 173 -281 173 -293 0 -2 18 -34 40
-70 22 -36 40 -68 40 -71 0 -3 31 -58 69 -122 79 -136 121 -216 121 -234 0
-13 -7 -28 -55 -113 -46 -81 -75 -125 -83 -125 -7 0 -82 121 -82 134 0 4 -16
32 -35 62 -19 30 -35 57 -35 59 0 3 -11 23 -25 45 -14 22 -38 64 -54 92 -15
29 -37 69 -48 88 -11 19 -51 89 -88 155 -37 66 -81 141 -97 168 -15 26 -28 50
-28 54 0 3 -6 14 -14 22 -22 25 -82 147 -79 158 3 7 51 12 131 12 121 2 129 1
149 -21z"/>
<path d="M1689 2427 l-114 -202 87 -155 c48 -85 90 -159 93 -165 3 -7 7 -7 10
0 19 39 397 701 406 712 10 11 -20 13 -178 13 l-189 0 -115 -203z m411 156 c0
-10 -15 -44 -33 -75 -18 -31 -67 -119 -110 -195 -164 -291 -187 -328 -198
-328 -7 0 -24 23 -38 50 -15 28 -43 78 -64 111 -20 34 -37 68 -37 75 0 8 12
34 26 59 56 98 79 138 115 205 63 117 60 115 210 115 116 0 129 -2 129 -17z"/>
</g>
</svg>
